<?xml version="1.0" encoding="UTF-8"?><svg id="Layer_1" xmlns="http://www.w3.org/2000/svg" xmlns:xlink="http://www.w3.org/1999/xlink" viewBox="0 0 648 648"><defs><style>.cls-1{filter:url(#drop-shadow-1);}.cls-2{stroke:#00a2d8;stroke-miterlimit:10;stroke-width:2.243px;}.cls-2,.cls-3{fill:#00a2d8;}.cls-3,.cls-4{stroke-width:0px;}.cls-4{fill:#f36d22;}</style><filter id="drop-shadow-1" filterUnits="userSpaceOnUse"><feOffset dx="9.689" dy="9.689"/><feGaussianBlur result="blur" stdDeviation="7.267"/><feFlood flood-color="#010101" flood-opacity=".4"/><feComposite in2="blur" operator="in"/><feComposite in="SourceGraphic"/></filter></defs><path class="cls-3" d="m279.557,107.361c-5.513-1.044-10.257,3.702-9.209,9.214.582,3.061,3.087,5.565,6.149,6.145,2.755.522,5.318-.402,7.062-2.147,1.744-1.745,2.669-4.308,2.146-7.065-.581-3.063-3.086-5.568-6.149-6.148Z"/><polygon class="cls-2" points="299.05 136.064 284.236 119.614 283.559 120.573 282.6 121.25 299.05 136.064"/><path class="cls-3" d="m347.852,107.36c5.515-1.043,10.257,3.705,9.206,9.22-.584,3.061-3.089,5.562-6.151,6.14-2.755.52-5.316-.404-7.059-2.148-1.744-1.745-2.669-4.308-2.146-7.065.581-3.063,3.087-5.568,6.15-6.148Z"/><polygon class="cls-2" points="328.357 136.064 343.171 119.614 343.848 120.573 344.807 121.25 328.357 136.064"/><path class="cls-4" d="m330.665,137.821c2.116,12.894-8.875,23.884-21.769,21.767-7.807-1.282-14.103-7.58-15.383-15.387-2.113-12.892,8.875-23.878,21.767-21.763,7.807,1.281,14.104,7.577,15.385,15.384Z"/><polygon class="cls-2" points="312.089 159.851 312.089 267.082 309.911 159.723 312.089 159.851"/><path class="cls-3" d="m446.671,132.464c-6.304,11.018-20.346,14.84-31.364,8.536-11.018-6.304-14.84-20.346-8.536-31.364,6.304-11.018,20.345-14.84,31.364-8.536,11.018,6.304,14.839,20.346,8.536,31.364Z"/><polygon class="cls-2" points="415.307 141 342.464 267.082 413.077 139.546 415.307 141"/><path class="cls-3" d="m217.866,145.672c8.154,8.144,8.161,21.355.018,29.509-8.144,8.153-21.355,8.161-29.509.017-8.153-8.144-8.161-21.355-.017-29.509,8.144-8.153,21.355-8.161,29.508-.017Z"/><polygon class="cls-2" points="217.884 175.18 311.014 268.994 216.079 176.788 217.884 175.18"/><polygon class="cls-2" points="549.041 222.677 439.816 246.962 548.603 220.051 549.041 222.677"/><path class="cls-4" d="m582.027,246.184c-18.889,6.876-38.965-5.757-40.939-25.762-1.345-13.63,6.92-26.764,19.79-31.449,18.89-6.877,38.966,5.756,40.939,25.761,1.345,13.63-6.92,26.764-19.79,31.449Z"/><polygon class="cls-2" points="91.905 228.828 200.019 257.662 91.083 231.36 91.905 228.828"/><path class="cls-4" d="m73.479,192.755c19.932,2.611,31.919,23.08,24.443,41.741-5.093,12.714-18.485,20.556-32.066,18.776-19.932-2.612-31.917-23.08-24.442-41.74,5.093-12.714,18.484-20.556,32.064-18.777Z"/><polygon class="cls-2" points="443.038 235.514 453.173 207.73 451.617 207.532 450.217 206.824 443.038 235.514"/><path class="cls-4" d="m464.577,194.156c-2.357-6.747-10.468-9.233-16.2-4.962-3.57,2.66-5.06,7.522-3.592,11.725,1.178,3.372,3.794,5.681,6.832,6.613,3.038.931,6.498.486,9.365-1.647,3.573-2.659,5.064-7.524,3.595-11.729Z"/><path class="cls-3" d="m482.331,277.888c2.602,6.656-1.936,13.821-9.066,14.311-4.44.305-8.736-2.415-10.359-6.559-1.303-3.327-.822-6.783.879-9.468,1.7-2.686,4.617-4.602,8.184-4.848,4.443-.306,8.741,2.416,10.363,6.563Z"/><polygon class="cls-2" points="439.054 260.518 464.836 275.008 463.784 276.172 463.182 277.62 439.054 260.518"/><path class="cls-3" d="m170.264,301.319c-.502,7.123,5.955,12.61,12.904,10.964,4.332-1.026,7.628-4.9,7.948-9.341.257-3.566-1.232-6.724-3.656-8.783-2.423-2.06-5.781-3.021-9.26-2.192-4.331,1.032-7.623,4.911-7.936,9.352Z"/><polygon class="cls-2" points="206.413 271.857 186.109 293.361 187.459 294.159 188.464 295.363 206.413 271.857"/><path class="cls-4" d="m173.315,206.902c.818-7.101,8.185-11.304,14.713-8.398,4.067,1.81,6.588,6.227,6.08,10.65-.408,3.552-2.456,6.38-5.217,7.955-2.76,1.575-6.236,1.898-9.5.445-4.067-1.811-6.586-6.229-6.076-10.651Z"/><polygon class="cls-2" points="203.394 242.53 187.417 217.643 188.891 217.108 190.101 216.112 203.394 242.53"/><path class="cls-4" d="m107.507,284.028c5.453,11.231-1.971,24.178-14.418,25.145-6.955.54-13.736-3.347-16.785-9.622-5.456-11.233,1.971-24.184,14.421-25.148,6.955-.539,13.735,3.35,16.782,9.625Z"/><path class="cls-3" d="m581.324,296.85c-1.953,14.027-16.857,21.873-29.526,15.542-7.672-3.834-12.168-12.376-10.986-20.87,1.952-14.028,16.858-21.874,29.527-15.542,7.671,3.834,12.168,12.376,10.985,20.87Z"/><polygon class="cls-2" points="415.657 253.156 334.34 271.575 415.221 250.53 415.657 253.156"/><path class="cls-3" d="m443.151,270.496c-12.381,2.804-24.69-4.959-27.494-17.339-2.805-12.38,4.958-24.69,17.339-27.494,12.38-2.804,24.689,4.959,27.494,17.339,2.804,12.381-4.96,24.69-17.339,27.494Z"/><path class="cls-3" d="m211.477,235.658c15.867,1.531,25.397,17.923,18.878,32.469-3.948,8.809-13.34,14.269-22.948,13.344-15.869-1.529-25.4-17.922-18.879-32.469,3.948-8.809,13.341-14.27,22.949-13.343Z"/><polygon class="cls-2" points="231.661 264.445 312.261 285.781 230.831 266.975 231.661 264.445"/><ellipse class="cls-4" cx="319.044" cy="274.76" rx="34.515" ry="34.338" transform="translate(-100.839 306.074) rotate(-45)"/><g class="cls-1"><path class="cls-3" d="m399.925,528.062h-161.761v-202.202h157.718v47.949h-101.39v28.886h95.612v46.507h-95.612v30.62h105.433v48.239Z"/></g></svg>